/* XPM */
static char *b0909118f0af45b5e35435a60d642cbfcySrcN6YRlsuzKUY[] = {
/* columns rows colors chars-per-pixel */
"64 64 174 2 ",
"   c #341F19",
".  c #2E2D16",
"X  c #322717",
"o  c #332C16",
"O  c #382F17",
"+  c #352219",
"@  c #3D231A",
"#  c #342818",
"$  c #3D2B19",
"%  c #2D3615",
"&  c #273C12",
"*  c #2A3B14",
"=  c #333315",
"-  c #3B3316",
";  c #333C14",
":  c #383915",
">  c #3A3618",
",  c #363B18",
"<  c #383C18",
"1  c #42261A",
"2  c #46291B",
"3  c #4C2D1C",
"4  c #512F1E",
"5  c #423F17",
"6  c #44371A",
"7  c #4C331B",
"8  c #463C1A",
"9  c #4C3D1C",
"0  c #54331D",
"q  c #59351E",
"w  c #533B1E",
"e  c #5C381F",
"r  c #523120",
"t  c #5D3721",
"y  c #5D3921",
"u  c #643D23",
"i  c #693E25",
"p  c #2C4B0F",
"a  c #34460F",
"s  c #39470F",
"d  c #334C0F",
"f  c #2C530D",
"g  c #2C5A0B",
"h  c #32530D",
"j  c #39540D",
"k  c #325C0B",
"l  c #2B4311",
"z  c #2D4910",
"x  c #324413",
"c  c #394414",
"v  c #314912",
"b  c #3C4A10",
"n  c #355311",
"m  c #2F6507",
"M  c #2F6C05",
"N  c #2E6209",
"B  c #346707",
"V  c #316D06",
"C  c #326309",
"Z  c #3A610B",
"A  c #336A08",
"S  c #3E6D0A",
"D  c #2E7303",
"F  c #2F7B00",
"G  c #327404",
"H  c #397507",
"J  c #347B02",
"K  c #3F710A",
"L  c #454316",
"P  c #444B14",
"I  c #464219",
"U  c #4C4419",
"Y  c #51441D",
"T  c #59421D",
"R  c #524B1C",
"E  c #594B1E",
"W  c #4D5B15",
"Q  c #5D511C",
"!  c #565918",
"~  c #436E0D",
"^  c #45730E",
"/  c #49730E",
"(  c #4D6314",
")  c #516417",
"_  c #566917",
"`  c #5C6E1B",
"'  c #4B7212",
"]  c #4D7810",
"[  c #5F721B",
"{  c #63651E",
"}  c #626C1E",
"|  c #63711E",
" . c #574420",
".. c #5C4122",
"X. c #644224",
"o. c #6B4326",
"O. c #6A4A26",
"+. c #6C4429",
"@. c #6F4E2A",
"#. c #704728",
"$. c #73492A",
"%. c #794E2C",
"&. c #645520",
"*. c #665823",
"=. c #705C26",
"-. c #74552A",
";. c #7D522E",
":. c #775E2A",
">. c #7D5330",
",. c #636220",
"<. c #726027",
"1. c #716F27",
"2. c #766329",
"3. c #7F622E",
"4. c #717026",
"5. c #80542F",
"6. c #815B2F",
"7. c #835631",
"8. c #8A5735",
"9. c #865932",
"0. c #895834",
"q. c #8A5934",
"w. c #8D5B36",
"e. c #8C5B35",
"r. c #8B5D35",
"t. c #8C5D35",
"y. c #8A5B34",
"u. c #80662D",
"i. c #816C2E",
"p. c #8B6036",
"a. c #836930",
"s. c #836D30",
"d. c #836F30",
"f. c #846D31",
"g. c #8B6E33",
"h. c #896A34",
"j. c #8A6D34",
"k. c #8A6E34",
"l. c #8E6D36",
"z. c #8B6D34",
"x. c #906137",
"c. c #906037",
"v. c #906D37",
"b. c #916138",
"n. c #926138",
"m. c #926239",
"M. c #96633B",
"N. c #936239",
"B. c #99673C",
"V. c #99673C",
"C. c #966B3A",
"Z. c #97693B",
"A. c #986D3B",
"S. c #9A683D",
"D. c #9D683E",
"F. c #9D6B3E",
"G. c #9D6A3E",
"H. c #9A6C3C",
"J. c #9F6C3F",
"K. c #9C6C3D",
"L. c #9E6B3E",
"P. c #857030",
"I. c #867031",
"U. c #A06C3F",
"Y. c #A06D3F",
"T. c #A06D3F",
"R. c #A06B40",
"E. c #A16C40",
"W. c #A06C40",
"Q. c #A26C40",
"!. c #A26C41",
"~. c #A46D42",
"^. c #A16D40",
"/. c #348001",
/* pixels */
"Y.B.r.r.B.E.E.d.' ~ <.y.0.<./ J J J J J J J J J J J J J J J J J G G G G G G G V V V V V G G G G G G G G G G G G G D D ' f.R.E.J.",
"Y.S.x.x.S.E.E.k.[ ` :.y.e.2./ J J J J J J J J J J J G G J J J J J G V V V G G V M M V G G G G G G G G G G G G G G D D ' f.R.E.J.",
"J.F.S.S.F.Y.Y.A.k.a.9.e.M.i.] J J J J J J J J J J G k k G J J J J G k k V G G V N N V G G G G G G G G G G G G G D D D ' f.R.R.J.",
"J.J.Y.J.J.J.J.Y.E.F.b.b.F.P.] J J G G G J J J J G C v v k A J J J V v x k V G M g g V G G G G G G G G G G G G H ^ ^ G ' f.R.R.F.",
"Y.Y.J.J.J.J.J.J.E.F.S.F.R.P.] F J V N N G J J G k h v x = a A /.J B ; = x k V M g g V G G G G G G G G G G G D ^ 1.1.^ ' d.E.E.J.",
"B.S.F.J.J.J.J.J.J.J.J.E.E.g.[ ~ Z k d h G J G A h x x ; X o h A J B : X ; n C C g g V G V C C C V G G G G H ^ | v.l.} ` k.E.E.J.",
"r.x.S.J.J.J.J.J.J.J.J.E.E.C.u.*.U - - c A J M g v x v ; X + o d A B = X ; v h h v h V G k v ; x C G G G G ^ 4.l.J.H.k.k.A.Y.J.J.",
"9.t.B.Y.J.J.J.J.J.J.J.J.F.b.7.o.3 1 1 - j C f l ; x x ; #     o h h = X = ; ; ; ; x k k x = + = k J J G B ) h.~.E.Y.E.E.Y.J.J.J.",
"9.t.B.E.Y.J.J.J.J.J.Y.F.b.>.u 3 2 1 1 $ - = o # # = x ; #     + = = + + X # # # # # = = # X   = C J J B s  .p.~.E.J.E.E.J.J.J.J.",
"9.r.N.S.J.Y.Y.Y.Y.J.F.b.7.+.3 1 1 1 1 @           X = = X                                     : C G A j - r %.b.S.E.E.Y.Y.Y.J.J.",
"9.9.r.b.S.E.E.E.E.F.b.7.+.t 3 1 1 1 @ +           + X X +                                     : C A b - 1 2 r +.b.E.E.E.E.E.Y.Y.",
"9.9.9.y.x.b.b.b.b.t.7.#.t 3 2 1 1 @ +                                                         = h h - 1 1 1 @ r >.b.b.b.b.N.V.S.",
"9.9.9.7.;.%.%.%.%.$.X.y 3 2 1 1 @ +                                                           + o = $ 1 1 1 1 3 y +.$.%.%.;.0.t.",
"9.9.7.%.+.i X.o.o.i y 0 2 1 @ @                                                                     @ 1 1 1 1 2 0 e i X.X.#.%.5.",
"9.7.%.+.u y X.o.o.X.y 0 2 @ @ +                                                                     + @ @ 1 1 2 0 y i o.X.+.#.#.",
"5.%.+.u e e u X.X.u e 3 2 @ +                                                                         @ @ 1 1 2 3 e i +.o.o.o.o.",
"#.+.u e 0 e e y y 0 3 2 2 @ +                                                                         + @ 1 1 1 2 0 u +.o.o.o.o.",
"o.i y 0 0 e e y y 0 2 1 @ @ +                                                                         + @ 1 1 1 1 3 y X.X.o.o.o.",
"o.X.y 0 0 e u X.X.y 3 @ @ +                                                                             + @ @ 1 1 2 0 u X.o.o.o.",
"X.u y e 0 t u X.i t 3 @ +                                                                                 + @ 1 1 2 3 e i +.o.o.",
"y e e e e e y e 0 3 2 @ +                                                                                 + @ 1 1 1 2 0 u o.o.o.",
"e 0 0 0 0 e e 0 2 1 @ @ +                                                                                 + @ 1 1 1 1 3 y X.o.o.",
"e 0 3 3 0 e e 0 2 @ @ +                                                                                     + @ @ 1 1 2 0 u X.+.",
"e 0 2 2 3 0 0 3 2 @ +                                                                                         + @ 1 1 2 3 e u X.",
"e 0 2 1 2 2 2 2 1 @ +                                                                                         + @ 2 1 1 2 3 e y ",
"e 0 2 1 2 2 2 2 2 @ +                                                                                         + @ 1 1 1 1 2 0 e ",
"e 0 2 2 3 0 0 3 2 @ +                                                                                           + @ @ 1 1 2 0 e ",
"e 0 2 2 3 0 0 3 2 @ +                                                                                             + @ 1 1 2 0 e ",
"e 0 2 1 2 2 2 2 @ +                                                                                               + @ 1 1 2 0 e ",
"e 0 3 2 1 1 1 @ @ +                                                                                               + @ 1 1 2 3 0 ",
"e 0 0 3 2 1 1 1 1 @ +                                                                                             @ @ 1 1 1 2 2 ",
"e 0 0 3 2 1 1 1 1 @ +                                                                                   + @ @ +   + @ 1 1 1 2 2 ",
"e 0 3 2 1 1 1 @ @ +                                                                                   + @ @ 1 @ + + @ 1 1 2 3 0 ",
"e 0 3 2 1 1 1 @ @ +                                                                                   + @ @ @ @ + + @ 1 1 2 3 0 ",
"e 0 0 3 2 1 1 1 1 @ +                                                                                   + + + +   + @ 1 1 1 2 2 ",
"e 0 0 3 2 1 1 1 1 @ +                                                                                   + + + +   + @ 1 1 1 2 2 ",
"e 0 3 2 1 1 1 1 @ +                                                                                   + @ @ @ @ + @ @ 1 1 2 3 0 ",
"9 7 3 2 1 1 1 @ + X X X X X X X +                                                                     + @ 1 1 1 @ @ @ 1 1 2 3 0 ",
"c 5 7 4 2 1 1 $ o % % % % % % . X                                                                     + @ 1 1 1 1 1 1 1 1 1 2 2 ",
"z c 8 7 3 2 $ o % * * * * * % . +                                                                     + @ 1 1 1 @ @ 1 1 1 1 2 2 ",
"x x c 5 7 7 > % * * * * * % . +                                                                       + @ 1 1 @ @ @ @ 1 1 2 3 0 ",
"x v z c 8 8 ; * * * * * % = # # # # # X +                                                           + @ 1 1 1 1 @ @ @ 1 1 2 3 0 ",
"x x x x c x * * * * * % O O : ; ; ; ; = X                                                         + @ 1 1 1 1 1 1 1 1 1 1 1 2 2 ",
"c c x x v x ; ; * * % = O - x v v x x = X                                                         @ @ 1 $ $ $ $ $ $ 1 1 1 1 1 1 ",
"w 8 c z z c 8 6 ; % O O : x x v v x = X +                                                         @ 1 $ = % % = = = $ 1 1 1 1 1 ",
"e w I c x c w w > = O - x v v x x = +                                                             @ 1 $ = % * * * % O $ 1 1 $ $ ",
"e e ..Y c c ..y 3 O : x x v v x = + +                                                             + @ 1 $ o % * * * % = $ $ : x ",
"0 y i X.U U X.i 4 2 : x ; x x ; o X X X +                                                         + @ 1 1 $ = % * * * % - - x v ",
"0 y i o.X.X.o.i e 7 2 $ $ - ; * % % % . X                                                         + @ 1 1 1 $ O % * * * ; x x v ",
"0 y X.o.o.o.o.X.u e 3 2 1 O % * * * * = X                                                       + @ $ $ $ $ $ O = % * & l v v x ",
"0 y X.+.o.o.o.o.X.u e 7 - % * * * % O $ +                                                     + @ $ = % % = = = O O % & l v v x ",
"e t u i ......X.X.X.u w > % * * * = $ 1 @                                 + X X +     +     + @ 1 $ = % * * * % O $ > ; x x c c ",
"e q t w 8 < < 8 X.o.X.y 3 o % * * % $ 1 @                                 X = = X           @ 1 1 1 $ o % * * * % > w Y c x 8 9 ",
"U U U L x l & : 9 X.X.u 7 : * l l * - $ @ +                               # ; x = + + + X # $ $ $ $ @ $ = = = = : 8 X.O.R U w t ",
"Z Z Z Z C g l * : 8 X.X.P p p f f z * = $ @ +                             # ; x x = + + = ; ; x x : # @ @ $ $ 2 w X.%.;.-.@.o.i ",
"Z C V M V m f l & ; Y R n g g g f p & % O $ @ @ + +                       # ; v v x o o x v v x x = X + $ $ $ 7 X.%.7.0.y.7.%.#.",
"U P Z M M V m f l * b n f g g f l & * * % = $ 1 @ @ +                     # ; v v x x x x v v x = X + + = % % 8 @.7.0.0.y.7.7.5.",
"t T W ~ A V V N f p f g g g N g p l z l & % O $ 1 1 @ +       + # o o o o = ; x x x v v v x x = +   + . % * : U *.<.<.<.<.:.6.9.",
"i +.-.,.~ M M V N g g g M V V V V C V g l % % = $ 1 1 @ +     # l p p p p l * * x v v v v x = +   + . % * , w E ( ^ ~ ~ ~ _ :.0.",
"Q &.=.{ ~ D M V V M N N V G G G G G V g l * * % - $ $ $ +     # l g g g g f l l l x x x ; = +   + # % & & c R ! S D D G K _ :.0.",
"~ ~ ^ ^ H G V V V V M V G G G G J V f l & * * * ; ; x : +     X * z g g g g f p l * x ; o +   + . % * & p h Z S G G D K { :.9.9.",
"/ ^ J J J J G V V V V V G G G G V g l * & l l l z z z x o X X # % & z f g g g f l l z v ; o # o * l l l f N V G G H ^ ` 3.t.y.9.",
"<.{ ^ J J J J G G V V V V G G V f l * & p f f f f f f p * % % % * * & l f g g f l v k C k h * * z f f f g g V G G / 4.l.C.M.r.9.",
"0.<./ J J J J J G V V V V G G C l % * l f g g g g g g f l * * * * * * & f g g f v h C G G N l l f g g g g g V G G ' g.~.E.S.t.9."
};
