/* XPM */
static char *_6f4bbff5aec452ce2395db4f22ae8a9qjiK7VDj4QkCp9V7[] = {
/* columns rows colors chars-per-pixel */
"64 64 178 2 ",
"   c None",
".  c #0C0719",
"X  c #130E1F",
"o  c #140F20",
"O  c #151122",
"+  c #1B1424",
"@  c #1F1B2B",
"#  c #1B1729",
"$  c #1E1D31",
"%  c #211827",
"&  c #221B2B",
"*  c #2B1D2A",
"=  c #281B27",
"-  c #321F2B",
";  c #201F32",
":  c #1F233D",
">  c #34212D",
",  c #3F262D",
"<  c #232236",
"1  c #25253A",
"2  c #282739",
"3  c #2B2A3E",
"4  c #27283D",
"5  c #3F2730",
"6  c #382935",
"7  c #42282F",
"8  c #452B32",
"9  c #4E2E33",
"0  c #522E30",
"q  c #543033",
"w  c #633735",
"e  c #653836",
"r  c #6A3B38",
"t  c #713D38",
"y  c #77413A",
"u  c #78413A",
"i  c #222740",
"p  c #252A43",
"a  c #2C2E43",
"s  c #292E49",
"d  c #272D48",
"f  c #2C324C",
"g  c #323345",
"h  c #33364B",
"j  c #3C3A4B",
"k  c #34384F",
"l  c #2E3551",
"z  c #2E395D",
"x  c #2E3758",
"c  c #303751",
"v  c #323A57",
"b  c #333C5C",
"n  c #383C52",
"m  c #343E61",
"M  c #463F4B",
"N  c #423746",
"B  c #3D4055",
"V  c #3B435D",
"C  c #37405C",
"Z  c #364162",
"A  c #3A4365",
"S  c #3C4668",
"D  c #3E496B",
"F  c #5C444D",
"G  c #424152",
"H  c #4B4554",
"J  c #4B4B5B",
"K  c #40455A",
"L  c #5D4954",
"P  c #6E4240",
"I  c #775355",
"U  c #404760",
"Y  c #424A63",
"T  c #4B4E63",
"R  c #424C6B",
"E  c #46516D",
"W  c #49536D",
"Q  c #4D5063",
"!  c #55596C",
"~  c #434F70",
"^  c #465172",
"/  c #4A5573",
"(  c #4F5A77",
")  c #4E5B7B",
"_  c #535C75",
"`  c #525E7C",
"'  c #576077",
"]  c #5A6177",
"[  c #5C647D",
"{  c #646574",
"}  c #67697B",
"|  c #706F7B",
" . c #556383",
".. c #5B6583",
"X. c #5B6886",
"o. c #5C6B89",
"O. c #616984",
"+. c #646E89",
"@. c #65718C",
"#. c #69718B",
"$. c #767B8D",
"%. c #7B7682",
"&. c #667592",
"*. c #6B7793",
"=. c #6E7A92",
"-. c #6E7D99",
";. c #717C94",
":. c #7A7F91",
">. c #707F9C",
",. c #807E87",
"<. c #7D8294",
"1. c #74819C",
"2. c #7A859D",
"3. c #7D889F",
"4. c #7C8AA4",
"5. c #7E8EA9",
"6. c #7987A2",
"7. c #83899D",
"8. c #838DA4",
"9. c #808FA9",
"0. c #8D93A7",
"q. c #8492AB",
"w. c #8B95AB",
"e. c #9D9BA2",
"r. c #9197AA",
"t. c #9199AB",
"y. c #8B9AB3",
"u. c #919DB4",
"i. c #9AA2B3",
"p. c #95A3BB",
"a. c #98A7BF",
"s. c #9DA9BF",
"d. c #A2A4AE",
"f. c #A4ACBE",
"g. c #A9ADBC",
"h. c #A9AAB5",
"j. c #ADB1BE",
"k. c #9CADC5",
"l. c #A2AFC3",
"z. c #ADB3C3",
"x. c #A6B4C9",
"c. c #A9B4C9",
"v. c #ADB8CC",
"b. c #A4B0C5",
"n. c #B0B4C2",
"m. c #B4BCCC",
"M. c #B2BFD3",
"N. c #BCC1CD",
"B. c #B5C1D4",
"V. c #BBC4D4",
"C. c #C2CDDE",
"Z. c #C9CCD5",
"A. c #C7D0DF",
"S. c #CED1DA",
"D. c #D2D4DC",
"F. c #D8D7D9",
"G. c #D7D6DA",
"H. c #C2CFE1",
"J. c #CBD5E3",
"K. c #D7DAE2",
"L. c #DDDFE5",
"P. c #DBDDE2",
"I. c #E0DFE1",
"U. c #DFE1E6",
"Y. c #DFE3EB",
"T. c #E0E1E7",
"R. c #E2E4EA",
"E. c #E9EBEF",
"W. c #E7E9EE",
"Q. c #E0E7F0",
"!. c #E5EAF1",
"~. c #E9EBF0",
"^. c #EEF1F5",
"/. c #F4F5F6",
"(. c #F4F6F8",
"). c #F7F9FC",
"_. c white",
"`. c #FDFDFE",
/* pixels */
"    A A Z m m m                                                                                                                 ",
"    A R ..#.#.O.                                                                                                                ",
"    Z ..g.D.D.h.H . X O                                                                                                         ",
"    m #.D._._.F.%.G j g                                                                                                         ",
"    m #.S._._./.G.j.7.[ a X O O                                                                                                 ",
"    m #.S._._._._.~.b.#.B < : $                                                                                                 ",
"    m #.S._._._._.U.y.o.( R b s $ O                                                                                             ",
"    m #.S._._._._.K.8. .o. ./ A f 1                                                                                             ",
"    m #.D._._._._.K.8. .X.o. .` / V < X O O                                                                                     ",
"    m +.n.L./._._.L.w.o.o.o.o.o.&...K a 3 1                                                                                     ",
"        O.0.P._._.R.s.1.@.X.o.&.4.5.1.+._ V < X o O                                                                             ",
"        z +.S._._.~.m.q.&. . .o.-.9.y.y.5.#.Q j 3 1                                                                             ",
"        b +.S._._.^.A.s.-.` ^ ~ / o.5.a.x.c.i.7.[ V < X                                                                         ",
"        m +.n.U.(.).Y.V.w.+.^ m b R +.5.p.v.C.B.y.X.n <                                                                         ",
"            O.0.P._.).R.V.w.` b l f C R ` 1.v.C.B.u.O.V 1 O                                                                     ",
"            z +.S._._.).Q.c.X.v s p i d l / 8.c.B.x.5._ 3 O                                                                     ",
"            b +.S._._._.).Z.+.x d p p p d v / *.y.a.y.#.g O                                                                     ",
"            m +.z.L.(._._.K.8./ v s d p p s v ^ &.5.y.;.g O                                                                     ",
"                O.0.L._._.~.B.8./ l d p p s b S ^ o.q.;.g O                                                                     ",
"                z O.j.L.`.`.Q.v.+.Z l f f l m A Z / >.#.g O                                                                     ",
"                    O.0.L._._.S.1.^ A b b m A A A ^ o.` a O                                                                     ",
"                    z O.j.U.`.W.f.;.) D S A A A A ~  .W 4 O                                                                     ",
"                        O.0.U._.E.m.;./ D A A A A ~  .W 1 o                                                                     ",
"                        z O.j.U._.E.f.=.^ Z A A A R ) ^ h 1                                                                     ",
"                            O.0.U._.~.z...m Z A A S R ^ / U 1 O                                                                 ",
"                            z O.j.T._.R.r.[ R Z A A A ~  ./ 3 O                                                                 ",
"                                O.0.U._.R.g.[ m Z A A ~  ./ 4 X                                                                 ",
"                                z O.j.T._.R.r.[ R Z b A / R h 1                                                                 ",
"                                    O.0.T._.R.g...v l f c V E U 1 X                                                             ",
"                                    z O.j.T._.U.8.W f 4 i c E E h 1                                                             ",
"                                        O.0.T.(.V.3.V : i d l V E U 1 X                                                         ",
"                                        z O.z.D.J.c.$.T f i d b / / h 1                                                         ",
"                                            O.3.v.J.S.d.T p l A D ^ / U 1 X                                                     ",
"                                            z ` q.V.(.P.:.Y A A A R ) / h 1                                                     ",
"                                                ` 8.U./.N.8.( Z A S R ^ / U 1 X                                                 ",
"                                                z O.z.D.J.c.*.^ S A A R ) / h 1                                                 ",
"                                                    O.7.m.B.y.&.^ Z Z S R ^ / U 1 X                                             ",
"                                                    z ` w.s.p.5.o./ ^ D m A / E h 1                                             ",
"                                                        ` @.q.y.9.>.o.^ v f c V E U 1 X             O O O #                     ",
"                                                        m / *.6.6.1.&.` A f d l E E h 1             g 3 @ O                     ",
"                                                            / ) ) ` X.X.` R f d l V E U 1 O O O X g [ ] a O                     ",
"                                                            Z Z Z A R ( X.` C d p l E E h < # # 2 T 3.;.g O                     ",
"                                                                    4 k `  .R v s d f V E V ; 2 _ 2.y.;.g O                     ",
"                                                                    X 1 A E D Z l f c C R R G ! q.k.a.=.g O                     ",
"                                                                        1 a b A Z A / R d B :.f.M.M.k.=.g O                     ",
"                                                                        O $ f b A D E E J | m.J.z.0.2.[ g O                     ",
"                                                                            $ p b b p J e.F.(.S.| j g g                         ",
"                                                                            O ; f l a { G._.P.e.M O O +                         ",
"                                                                                $ h ' i.~.I.,.M 6 > > * % O                     ",
"                                                                                X g ;.l.N.e.j O - 8 9 5 % O                     ",
"                                                                                X g ;.8.{ j & + > 9 w q * O                     ",
"                                                                                O a ] [ a X O % > 9 r e 7 *                     ",
"                                                                                O @ 3 g     O % > 9 r t e 9 * O                 ",
"                                                                                # O O O     O # * 8 e u u w , *                 ",
"                                                                                                + > w u y t w 9 * O O O         ",
"                                                                                                O * 9 w t y u e , = % +         ",
"                                                                                                    * , w u u t w 0 , * + o O # ",
"                                                                                                    O * 9 w e P I I L H G g & O ",
"                                                                                                        * > 7 F %.7.<.7.t.$.g O ",
"                                                                                                        O + * N { 6.p.v.H.i.G X ",
"                                                                                                            + & 3 ! i.H.J.i.G X ",
"                                                                                                            O O X j <.i.i.<.j X ",
"                                                                                                                    j G G j     ",
"                                                                                                                    X X X X     "
};
