/* XPM */
static char *_61207a6a1ed451c8d237e0be1e3cd5a[] = {
/* columns rows colors chars-per-pixel */
"64 64 179 2 ",
"   c None",
".  c #110F0C",
"X  c #12110E",
"o  c #1F170F",
"O  c #0E1111",
"+  c #141412",
"@  c #1B1610",
"#  c #1D1812",
"$  c #151718",
"%  c #171819",
"&  c #191B1C",
"*  c #161816",
"=  c #2C1D0F",
"-  c #311F0F",
";  c #261D14",
":  c #35200E",
">  c #3B230D",
",  c #332416",
"<  c #3E2614",
"1  c #352619",
"2  c #3A2919",
"3  c #3E2916",
"4  c #2A2019",
"5  c #1B1E22",
"6  c #1D2224",
"7  c #1E222A",
"8  c #1F2530",
"9  c #21252D",
"0  c #222A2D",
"q  c #2C282B",
"w  c #272524",
"e  c #3D2F21",
"r  c #352C28",
"t  c #3D332B",
"y  c #222632",
"u  c #242A35",
"i  c #252C39",
"p  c #2C2D35",
"a  c #253135",
"s  c #2A3336",
"d  c #27313C",
"f  c #29343C",
"g  c #2C393E",
"h  c #333335",
"j  c #3E3532",
"k  c #45260B",
"l  c #47280C",
"z  c #4E2C0F",
"x  c #432913",
"c  c #452E1A",
"v  c #4E2E12",
"b  c #4F3015",
"n  c #44311E",
"m  c #4C341E",
"M  c #5B3515",
"N  c #53351D",
"B  c #5D381A",
"V  c #5B371A",
"C  c #643A16",
"Z  c #4E382B",
"A  c #453427",
"S  c #563B23",
"D  c #493B35",
"F  c #433A37",
"G  c #724723",
"H  c #764924",
"J  c #7A4B22",
"K  c #7E4E28",
"L  c #7B5635",
"P  c #7A5638",
"I  c #263341",
"U  c #2A3541",
"Y  c #2D3B44",
"T  c #2E3D49",
"R  c #303F43",
"E  c #303F4C",
"W  c #2F404D",
"Q  c #314045",
"!  c #32444C",
"~  c #3C494B",
"^  c #3B4447",
"/  c #344552",
"(  c #354955",
")  c #364C59",
"_  c #3A4D5B",
"`  c #3C4E55",
"'  c #3A525D",
"]  c #37505C",
"[  c #3B5461",
"{  c #3D5864",
"}  c #3B5866",
"|  c #4C4D4A",
" . c #484A47",
".. c #534D46",
"X. c #53554F",
"o. c #42555B",
"O. c #4E5553",
"+. c #515755",
"@. c #525856",
"#. c #5A5B54",
"$. c #415B66",
"%. c #425B69",
"&. c #42606E",
"*. c #446373",
"=. c #496574",
"-. c #476A7C",
";. c #4B6B7B",
":. c #506D7F",
">. c #626661",
",. c #6C7979",
"<. c #804F29",
"1. c #8F5729",
"2. c #875021",
"3. c #9C5C27",
"4. c #955A2B",
"5. c #9C5D29",
"6. c #825732",
"7. c #875A32",
"8. c #955D31",
"9. c #995F31",
"0. c #A15F29",
"q. c #9D683B",
"w. c #996337",
"e. c #BF6E2D",
"r. c #B96F32",
"t. c #BC7032",
"y. c #836243",
"u. c #9F6D41",
"i. c #A06F45",
"p. c #A3754C",
"a. c #917E65",
"s. c #496F80",
"d. c #4A7082",
"f. c #4E768A",
"g. c #507180",
"h. c #547B8D",
"j. c #587B89",
"k. c #4F7B91",
"l. c #537E92",
"z. c #548196",
"x. c #5D8395",
"c. c #568499",
"v. c #59859A",
"b. c #5C889D",
"n. c #74888A",
"m. c #62899C",
"M. c #6A8A96",
"N. c #5C8DA3",
"B. c #5B8FA8",
"V. c #5C91AA",
"C. c #6591A4",
"Z. c #6394AA",
"A. c #6D9BAE",
"S. c #6895A9",
"D. c #669CB4",
"F. c #6A9DB4",
"G. c #719FB6",
"H. c #709EB1",
"J. c #6AA1B9",
"K. c #71A0B7",
"L. c #73A4BA",
"P. c #76AAC2",
"I. c #79ACC3",
"U. c #7CB3CB",
"Y. c #7FB7D0",
"T. c #7FB9D1",
"R. c #81BBD5",
"E. c #81BCD6",
"W. c #81BCD5",
"Q. c #83BED8",
"!. c #85C1DB",
"~. c #89C4DE",
"^. c #8AC6E1",
"/. c #8CC9E3",
"(. c #8DCAE4",
"). c #8DCAE5",
"_. c #8ECCE7",
"`. c #8CCAE4",
"'. c #8FCDE8",
/* pixels */
"                                                                                                                                ",
"                                                                                                                                ",
"                                                                                                                                ",
"                                                                                                                                ",
"                                                                                                                                ",
"                                                                                                                                ",
"                                        u u u y y y y y y y u u u 7 $ X + + + +                                                 ",
"                                        y i T / _ _ _ _ _ ( Y U E Y 0 6 & % + +                                                 ",
"                                    u y y Y *.z.S.K.G.K.K.m.%.' -.-.] Y i 6 $ + + +                                             ",
"                                    y f / =.N.P.!.).).)._.I.;.&.z.c.*.( U 9 5 $ + +                                             ",
"                                u y y / x.P.U.Q.~././.).).I.;.&.z.c.*.( f u y 6 $ + + +                                         ",
"                                u i Y =.P._.).^./././.).).I.;.&.z.c.*.( f u u y 5 % $ +                                         ",
"                            u u y Y *.N.Y.)./.^./.).).)._.I.;.&.z.c.*.( f u u u y 6 % + + +                                     ",
"                            u i T } l.D.U.Q.^.Q.I.G.G.G.K.m.%.' -.-.[ T u 7 7 7 7 5 $ + + +                                     ",
"                            u T *.l.N.V.D.P.!.I.:._ _ _ _ / Y f T T U u & $ $ $ $ $ + X + +                                     ",
"                            y / f.V.V.b.h.z.A.m._ U / _ _ _ _ _ _ _ _ _ ! g s f Y Y f 0 % +                                     ",
"                            y / f.Z.V.l.} / _ _ / %.m.K.G.G.G.K.G.G.K.G.F.C.h.h.C.C.h.{ 0 X                                     ",
"                            y T -.z.l.=.Y y u Y [ h.U._.).).).).).).).).).E.F.F.E.!.J.d.s X                                     ",
"                            u Y [ %.) T i i T [ d.Z.T.).)././././././.).).W.D.F.W.Q.J.s.s X                                     ",
"                            u U ( ( d i T ) } ;.c.F.W.).)././././././.).).W.D.F.W.Q.J.s.s X                                     ",
"                            u U ( / d T *.k.l.c.N.F.E._.).).).).).).).)._.W.F.F.E.!.J.d.s X                                     ",
"                            u U ( ` F ..,.M.C.N.c.v.S.A.A.A.A.A.A.A.A.A.A.C.h.h.C.C.l.{ 0 X                                     ",
"                            u U ( +.P w.i.a.M.c.s.{ ! R R R R R R R R R R Y f f Y Y f 0 % +                                     ",
"                            u U ( #.q.e.e.i.,.-.] f 5 + X X + + X X + + X X + $ + X X X + +                                     ",
"                            u U ( #.q.e.e.w...Y 0 6 7 5 $ $ 5 5 $ $ 5 5 + $ 5 5 $ X X + + +                                     ",
"                            u d T  .P 8.8.L j 7 $ % u i 5 5 i i 5 5 i i 5 5 i u % X + + + +                                     ",
"                            u u 7 q j D D j p 7 $ & Y T u u T T u u T T u u T Y & X + +                                         ",
"                            i 7 $ $ 5 8 y i f i 7 f %.;.%.$.;.;.%.%.;.;.$.$.;.=.` s & +                                         ",
"                                + + $ 5 8 d ! ( ! %.S.I.L.L.P.L.L.L.P.P.L.L.P.I.L.j.s X                                         ",
"                                + X X $ 5 i E ( ' ;.A.U.W.E.E.E.Q.Q.E.E.Q.Q.Q.E.U.m.g .                                         ",
"                                    . X + & u Y ) %.;.h.Z.J.J.J.J.J.J.J.J.J.J.Z.z.$.0 X                                         ",
"                                    Q R R R ! / / / ! ( *.d.s.s.s.s.s.s.s.d.d.*.) f & +                                         ",
"                                ) =.m.F.F.C.l.*./ i 6 6 0 a s s s s s s s s s 0 7 & $ + + +                                     ",
"                                =.x.U.'.'.!.P.v._ i 7 6 6 & % $ $ + X X + $ $ % 5 6 & % % %                                     ",
"                            . R m.U.!.).).^.!.F.*.! ! ! ! Y u 7 7 5 + + 5 7 7 u Y T u 7 9 6 % +                                 ",
"                            . R A.'.).^.^./.).I.g.' ' ' ' ( Y U T T s s T T U Y ) ( U u u 9 % +                                 ",
"                            . R A._.).^.^./.).I.g.' ' ' ' _ ( ' -.f.d.d.f.-.' ( ] ( U u u 9 % +                                 ",
"                            . g C.!./.).).~.U.C.$.( { *.*.*.;.h.Z.J.J.J.J.Z.h.;.*.[ Y u u 9 % +                                 ",
"                            X s h.P.!._._.U.b.$.s g -.z.z.N.L.U.T.E.E.E.E.T.U.L.N.-.E u u 9 % +                                 ",
"                            X u } h.C.F.H.x.{ s % 0 *.c.z.N.L.U.Y.W.R.T.W.Y.U.L.N.-.Y 7 7 6 % +                                 ",
"                                u s Y Q Q g 0 & + 7 _ *.*.*.;.h.Z.F.F.F.F.Z.h.;.*.] 0 % % %                                     ",
"                                X X X X X + $ % % 9 ! ' ' ] _ %.l.N.N.N.N.l.%.] ' ! 6 X + +                                     ",
"                                    X X X $ 5 9 9 d / ' ' ' ] &.l.N.N.N.N.l.&.' ' ! 6 X                                         ",
"                                    + + + % 9 i u U ( [ [ ' ' *.z.V.B.B.V.z.*.' ) T 6 +                                         ",
"                                        + % 9 i u U ( [ [ ' ' *.z.V.V.V.V.z.*.( T u & +                                         ",
"                                        + % 6 9 q h ^ ~ ~  .X.>.,.n.n.n.n.,.>.| s 5 % +                                         ",
"                                        + $ % ; 1 c n n n S 7.u.p.p.p.p.p.p.u.L r $                                             ",
"                                        + + + # , x < < < N <.8.4.4.3.3.4.4.5.J 1 O                                             ",
"                                        + + + * w q q q q r F D D Z V V Z Z B v ; +                                             ",
"                                        + $ & 0 d U U f i i d I I h N N h h S b 4 %                                             ",
"                                        X & f ! ( ( ( ! d d W ( ( | 6.6.| | 6.K t 7 % +                                         ",
"                                        6 a ( [ [ ' _ ! f U ( [ [ #.q.q.#.#.q.9.D 7 & +                                         ",
"                                    + 6 Y ( ' [ [ _ T f i U ( [ [ #.q.q.#.#.q.9.D 7 % +                                         ",
"                                    X 5 Y ) ( / ! Y u 7 7 d ( [ [ @.y.y.+.@.y.L j 5 $ +                                         ",
"                                    + & u I I i 7 5 & % % 9 ! [ ' o.@.@.o.o.@. .w $ + + + +                                     ",
"                                    2 e A D D A c , # + X 6 ! [ [ ' [ [ ' [ [ ~ t 3 3 , # +                                     ",
"                                O 1 H 4.8.8.8.8.4.G , + X 6 ! [ [ [ [ [ [ [ [ O.L 4.4.G , +                                     ",
"                                @ 3 J 0.0.5.5.5.4.G , + + 5 g ! ! ! ! ! ~ ~ ~ ..7.5.5.H 2 O                                     ",
"                            + # - x M C C C C M c , # + + * 5 6 6 6 6 w e A A m B M c 2                                         ",
"                            @ = > l k k k k > = @ O + + + + + + + + + o > k k k k : @ O                                         ",
"                        O @ = > k k k k l > = @                     + # > k k k k : @ O                                         ",
"                        2 c M C C M z k > : # +                     + ; b C C C C M c 2                                         ",
"                    O 1 H 4.5.5.5.2.M > = #                         + 1 J 5.5.5.5.5.4.H 1 O                                     ",
"                    O 2 1.t.t.r.t.5.C : @ +                         O 2 1.t.r.r.r.t.t.1.2 O                                     "
};
