/* XPM */
static char *feda548416bb4e7187369fa8c8e53187[] = {
/* columns rows colors chars-per-pixel */
"64 64 168 2 ",
"   c None",
".  c #473F19",
"X  c #4A3E1D",
"o  c #4E3C22",
"O  c #523C26",
"+  c #543A2B",
"@  c #5A3D2F",
"#  c #613F33",
"$  c #3A4507",
"%  c #3D4B06",
"&  c #3C4509",
"*  c #3E4908",
"=  c #414D07",
"-  c #41460D",
";  c #434B0B",
":  c #445305",
">  c #485406",
",  c #475904",
"<  c #4A5D03",
"1  c #475108",
"2  c #4E540F",
"3  c #4E5A0A",
"4  c #505E05",
"5  c #515A0D",
"6  c #5B5F0F",
"7  c #444412",
"8  c #4A4616",
"9  c #464811",
"0  c #4C4A15",
"q  c #4C431B",
"w  c #4E4918",
"e  c #51451E",
"r  c #544C1C",
"t  c #584A1F",
"y  c #4F5212",
"u  c #545613",
"i  c #5A5C13",
"p  c #575019",
"a  c #5B541B",
"s  c #5F5819",
"d  c #61531F",
"f  c #665D1C",
"g  c #4D6102",
"h  c #526503",
"j  c #586604",
"k  c #556902",
"l  c #5A6D01",
"z  c #536009",
"x  c #5C650B",
"c  c #5F6908",
"v  c #5E7101",
"b  c #5D6111",
"n  c #636F07",
"m  c #60650D",
"M  c #656D0B",
"N  c #627500",
"B  c #667900",
"V  c #6A7D01",
"C  c #67700A",
"Z  c #696615",
"A  c #646910",
"S  c #6B6D11",
"D  c #67601A",
"F  c #756D1C",
"G  c #767516",
"H  c #534421",
"J  c #5A4725",
"K  c #5E4D24",
"L  c #5D432C",
"P  c #5F482B",
"I  c #5F5020",
"U  c #644A2E",
"Y  c #625223",
"T  c #6C5A26",
"R  c #67542B",
"E  c #6C532D",
"W  c #725A2C",
"Q  c #634431",
"!  c #664932",
"~  c #6B4A34",
"^  c #6E4939",
"/  c #70493A",
"(  c #6E5632",
")  c #715535",
"_  c #735936",
"`  c #7A573E",
"'  c #755938",
"]  c #7B6630",
"[  c #815646",
"{  c #825E43",
"}  c #885F47",
"|  c #8E614D",
" . c #6E8101",
".. c #738501",
"X. c #768901",
"o. c #7B8E01",
"O. c #7B8708",
"+. c #7D9101",
"@. c #839602",
"#. c #819402",
"$. c #849702",
"%. c #849703",
"&. c #839605",
"*. c #809301",
"=. c #859803",
"-. c #859903",
";. c #869903",
":. c #879A03",
">. c #879B03",
",. c #879B05",
"<. c #889B03",
"1. c #889C03",
"2. c #899C03",
"3. c #889B04",
"4. c #899C04",
"5. c #899D04",
"6. c #8A9D04",
"7. c #8A9D05",
"8. c #8A9E04",
"9. c #8B9E04",
"0. c #8A9E05",
"q. c #8B9E06",
"w. c #8DA004",
"e. c #8DA105",
"r. c #8CA004",
"t. c #8EA205",
"y. c #8FA305",
"u. c #8DA106",
"i. c #8FA307",
"p. c #8EA105",
"a. c #90A305",
"s. c #90A405",
"d. c #91A406",
"f. c #92A506",
"g. c #92A606",
"h. c #93A706",
"j. c #93A606",
"k. c #92A605",
"l. c #94A706",
"z. c #94A806",
"x. c #95A906",
"c. c #95A907",
"v. c #96A906",
"b. c #97AA07",
"n. c #97AB07",
"m. c #96AA07",
"M. c #98AB07",
"N. c #98AC07",
"B. c #99AC07",
"V. c #99AD07",
"C. c #9AAD07",
"Z. c #9AAE07",
"A. c #9BAF07",
"S. c #95A908",
"D. c #96AA08",
"F. c #99AD08",
"G. c #9AAE08",
"H. c #9BAF08",
"J. c #9CB007",
"K. c #9CB008",
"L. c #9DB108",
"P. c #9EB208",
"I. c #9EB308",
"U. c #9FB308",
"Y. c #A0B408",
"T. c #A0B409",
"R. c #A1B509",
"E. c #A2B609",
/* pixels */
"                                                                                                                                ",
"                                                                                                                                ",
"                                                                                                                                ",
"                                                                                                                                ",
"                                            ;.+.+.;.    o.+.+.      1.#.+.+.+.                                                  ",
"                                          P.P.6.6.P.Z. ...+.+.  P.P.P.d.+.+.+.                                                  ",
"                                        P.P.P.Z.Z.P.Z.+.o.o.;.P.P.P.P.d.+.+.+.p.P.P.P.                                          ",
"                                        P.P.P.P.P.P.P.b.b.l.b.P.P.P.P.d.+.+.p.Z.P.P.H.3                                         ",
"                                        b.p.Z.P.P.P.P.P.P.P.P.P.P.a.6.;.+.+.Z.Y.P.J.6.l                                         ",
"                                          +.b.P.P.P.P.P.P.P.P.P.P.p.;.$.+.+.p.d.p.&...B k                                       ",
"                                  $.d.P.Z.;.b.P.P.P.P.P.P.P.P.P.P.P.P.d.+.#.#.*...B N B l k                                     ",
"                              P.P.P.P.P.P.P.P.P.P.P.P.P.P.P.P.P.P.P.P.d.$.Z.P.6.o.X.B X.o. .N                                   ",
"                        +.o.;.P.P.P.P.P.P.P.P.P.P.P.P.P.P.P.P.P.P.P.P.H.Z.P.P.6.o.o.o.o.+...N N                                 ",
"                        +.+.+.1.Z.P.P.P.P.P.P.P.P.Z.1.;.b.P.P.P.P.P.P.P.P.P.6.*.+.+.+.+.+.o. .N                                 ",
"                          o.#.p.H.P.P.P.P.P.P.P.d.o...,.Z.P.P.P.P.P.P.P.P.P.d.$.+.+.o...o.#...4                                 ",
"                          o.;.P.P.P.P.P.P.P.P.P.p... .p.Z.P.P.P.P.P.P.P.H.6.6.o.X.+.o.v B V l *                                 ",
"                    N N X.*.$.b.M.H.P.P.P.P.P.P.P.d.+.#.b.P.P.P.P.P.P.P.d.V V V X.#.+.v g 1 * *                                 ",
"                    N B 6.a.+.+.#.b.P.P.P.P.P.P.d.o.+.b.P.P.P.P.P.P.P.d.+.+.d.H.H.H.H.H.B , <                                   ",
"                      d.H.P.p.*.b.P.P.P.P.P.P.Y.,.V +.Z.P.P.P.Z.;.b.Y.6. .b.P.P.P.P.P.P.B , <                                   ",
"                      Y.P.P.b.*.<.Z.P.P.P.H.+.X. .V +.;.1.<.1.;.+.;.+.V V H.P.P.P.P.H. .h < < <                                 ",
"                      +.b.Y.p.V X.1.p.d.P.P. .v l k N  .X.+.o...o.o...V ..6.p.b.P.Z.6.B h < < <                                 ",
"                    N N +.p...g +.;.+.#.d.6.V B N k l N  ...B v o.;.<.$.+.;.;.b.P.Z.;.o.v < > >                                 ",
"                    N N N k g v S.P.p.#.+.V B ..+.+.o.B N l g k o.b.P.d.;.H.P.Z.Z.P.Z.V N z * *     , < <   < < <               ",
"                      N h , v S.P.P.P.H.b.+.o.o.+.+.o.B N N B o.+.l.P.H.H.P.P.6.6.P.b.V N k < , < * : < < < < < <               ",
"                +.+.o.B p 0 N P.P.P.P.P.Z.*.+.+.+...k g l N V +.+.#.#.p.P.P.P...l  . .B N N x e , = * : < < < <                 ",
"              X.+.+.o.X.I r N o.,.Z.Y.b.;.+.+.+.+.o.V V B N B  .o.+.S G Y.P.X.h h N N N N N m + ; * = , < < < <                 ",
"            N V X.+.+.+.d J S  .o.6.d.6.o.+.+.+.+.+.+.+...B N N  ...s Y &.X.h g l N N N N v 6 L ; * 1 g < > < < <               ",
"            N B ..+.+.+.Z ! W +.+.o.o.o.+.+.+.+.+.+.+.+.+.X.V V N M K t v g g l N N N N N l i ~ 3 % = , > * 1 , >               ",
"              +.+.o.o.+.+.F W O.o.o.+.+.+.o.o.+.+.o.+.+.+.o.X...C E Q a B B B N N N N N N N A ~ 3 = * * * * * * *               ",
"              o.+.X.B X.+.F ^ E C X.+.+.X.B X.+...V o.+.+.B g z E ^ f V o.o.o.V N N N N N N A ~ 3 < , , , * *                   ",
"            < h v B N B v z a ~ C X.*.X.V N B V B B o.+.N g 5 U ^ D C V +.+.+.o. .B X.X.v u P ~ c v h < , * * *                 ",
"            < , k ......v k b ~ n V B l k N N N N V +.+.l , u ~ F ..V B  .o.+.+.o...+.+.v w + i N N l k h * & & *               ",
"            < k V +.+.+...B C F V B k h k N N N N B ..V h g i ) O.+.X.V  .o.+.+.+.+.+.+.v w H g k N N B l * * *                 ",
"          < < V *.+.+.+.+... .+.+. .B N N N v l v N N h g l M T ..o.+.+.+.+.+.+.+.o.X...l w H < < l N N k * *                   ",
"          < < V +.o.o.+.+.+.+.+.+.+. .N N v g < k N N N N N N N B X.+.+.+.+.+.+.+.X.N g < 0 e g g l N l < *                     ",
"          < < V +.X.V o.+.+.+.+.+.+. .N l = * > k N N N N N N B X.+.+.+.+.+.+.+.+...g < < , z v v N N N k *                     ",
"            < h k k h X.+.+.+.+.+.+. .N v , > , h N N N N N N B o.*.V N +.+. .X.#...g < < < h N N k l B v , ,                   ",
"              h k k l X.*.X...+.+...V N N k > > k N N k v N N B V B h h  . .l l N l < < < < g k k g g k h < <                   ",
"              B N N B .. .N l V V v x x N N = : h l k g l B N l N k h l N N k h h h < < , , < < < < < < < < <                   ",
"              l v N N N k g g < < , q J c k = : < < < < k l h < v N N v N N N N N v < < ; ; , < < < < < < < <                   ",
"            < < h N N N N N l < < = q + O - * > g < g g g > * = l N k h N N N N N l < < e X = < , < < < < ,                     ",
"          * , < > > v h l B l < < < ; . @ ! x v k g v v h < , , g g < h N N N 3 1 g < < H q < , % > < < , * *                   ",
"        < > = = * * 1 e 5 < 1 = < g : & q ! M N N v N N v l k < < < < h N N a 9 $ % ; q + r g < * * = = * * *                   ",
"        < < > : = & & + H 9 $ * = : * & 7 ! T x l N N N N N N k g < < g k 3 O o 7 & X + o 9 : : * * * * * * *                   ",
"        < < < g , = ; q + X $ * = = * * ; Y ^ R A N N l v N N N , < < < : & . + o . + o 7 & & & * * * * & *                     ",
"          < < < < < < * o o & = < < 1 : < < K [ ] l k 3 l N N k ; : , : * 9 9 O + + o & & * * * * * * * * * * * *               ",
"        < < < < < < , * X + H , < < < < < < * ) _ ; - O 6 N j * * - ; - 7 ! ! L + o & * * * = < , % : < , * * * *               ",
"        < < < < < , * * & X @ U ; , g 2 H ; $ ( | ) - O 8 0 e * * ( { ` ! ^ u 3 ; & & & & * = < < , , < , * * * *               ",
"              < < <   * & & H ^ P 2 g y + o & 0 ) { - O 7 . o - ( | ' r w u < < , : & * * * * = < < > = = * * * *               ",
"                <     * * & - J ^ a , ; X + X & t ) - O o o o 9 } ' 0 $ : < < < < , * * * * & & = : * & * * & *                 ",
"                      * * * & - !     & & o + X H ! & X + + . 9 ` w $ = < < , , < , * & * * * & $ $ & * & & &                   ",
"                            & - !   $ * * * o + # U * * o X $ - ! 8 & = , , * : , > * & * * * &   & * *                         ",
"                                    * * * * * X # U * * o X $ - ! 8 $ & * * * * * * * & * * *                                   ",
"                                  * & * * * * & H U * * o +     ^ 8 $ &     * * & & * * * * *                                   ",
"                                  * & * *   * $ e !   * 7 7     ^ H         * * &   * * *                                       ",
"                                    & &       $ J /     $                     *     * *                                         ",
"                                                  ^                                                                             ",
"                                                                                                                                ",
"                                                                                                                                ",
"                                                                                                                                ",
"                                                                                                                                ",
"                                                                                                                                ",
"                                                                                                                                ",
"                                                                                                                                "
};
